<svg xmlns="http://www.w3.org/2000/svg" viewBox="0 0 512 512">
  <rect width="512" height="512" rx="80" fill="#0f1117"/>
  <rect x="40" y="40" width="432" height="432" rx="60" fill="none" stroke="#6c8cff" stroke-width="8"/>
  <!-- Fader channels -->
  <rect x="100" y="180" width="24" height="200" rx="4" fill="#23262f"/>
  <rect x="100" y="260" width="24" height="40" rx="4" fill="#6c8cff"/>
  <rect x="160" y="180" width="24" height="200" rx="4" fill="#23262f"/>
  <rect x="160" y="220" width="24" height="40" rx="4" fill="#34d399"/>
  <rect x="220" y="180" width="24" height="200" rx="4" fill="#23262f"/>
  <rect x="220" y="240" width="24" height="40" rx="4" fill="#6c8cff"/>
  <rect x="280" y="180" width="24" height="200" rx="4" fill="#23262f"/>
  <rect x="280" y="200" width="24" height="40" rx="4" fill="#fb923c"/>
  <rect x="340" y="180" width="24" height="200" rx="4" fill="#23262f"/>
  <rect x="340" y="280" width="24" height="40" rx="4" fill="#34d399"/>
  <!-- AI brain icon -->
  <circle cx="380" cy="130" r="40" fill="none" stroke="#6c8cff" stroke-width="6"/>
  <circle cx="368" cy="120" r="6" fill="#6c8cff"/>
  <circle cx="392" cy="120" r="6" fill="#6c8cff"/>
  <path d="M365 140 Q380 155 395 140" fill="none" stroke="#6c8cff" stroke-width="4" stroke-linecap="round"/>
  <!-- Text -->
  <text x="256" y="460" text-anchor="middle" fill="#e1e4ea" font-family="sans-serif" font-weight="700" font-size="48">MixAgent</text>
</svg>
